<svg
    xmlns="http://www.w3.org/2000/svg"
    viewBox="0 0 24 24"
    id="vector">
    <path
        id="path"
        d="M 20 2 L 4 2 C 2.9 2 2.01 2.9 2.01 4 L 2 22 L 6 18 L 20 18 C 21.1 18 22 17.1 22 16 L 22 4 C 22 2.9 21.1 2 20 2 Z M 7 9 L 17 9 C 17.55 9 18 9.45 18 10 C 18 10.55 17.55 11 17 11 L 7 11 C 6.45 11 6 10.55 6 10 C 6 9.45 6.45 9 7 9 Z M 13 14 L 7 14 C 6.45 14 6 13.55 6 13 C 6 12.45 6.45 12 7 12 L 13 12 C 13.55 12 14 12.45 14 13 C 14 13.55 13.55 14 13 14 Z M 17 8 L 7 8 C 6.45 8 6 7.55 6 7 C 6 6.45 6.45 6 7 6 L 17 6 C 17.55 6 18 6.45 18 7 C 18 7.55 17.55 8 17 8 Z"
        fill="#ffffff"/>
</svg>
